<svg width="30" height="28" viewBox="0 0 30 28" fill="none" xmlns="http://www.w3.org/2000/svg">
<path d="M17.7895 1.5H12.5263C7.56416 1.5 5.08309 1.5 3.54154 3.04154C2 4.58309 2 7.06416 2 12.0263V12.6842C2 17.6464 2 20.1274 3.54154 21.669C4.40099 22.5284 5.6825 23.0423 7.39318 23.2105C7.12283 24.5288 6.44433 25.4033 7.67855 26.3225C8.32368 26.7918 9.3517 26.2905 11.4077 25.288C12.8507 24.5844 14.3108 23.7775 15.8876 23.4145C16.4647 23.2831 17.052 23.227 17.7895 23.2105C22.7516 23.2105 25.2327 23.2105 26.7742 21.669C28.3158 20.1274 28.3158 17.6464 28.3158 12.6842V12.6842V12.0263V12.0263C28.3158 7.06416 28.3158 4.58308 26.7742 3.04154C25.2327 1.5 22.7516 1.5 17.7895 1.5Z" stroke="#1C3C36" stroke-width="2.5" stroke-linecap="round"/>
</svg>
